<svg xmlns="http://www.w3.org/2000/svg" xml:space="preserve" viewBox="0 0 64 64">
  <path d="M29.319 46.335c-1.42 0-2.522-1.238-3.74-3.098a24.552 24.552 0 0 1-2.718-5.587c-.47-1.408-.582-2.905-.593-3.913-.02-1.884-.018-3.751-.016-5.626.002-1.837.003-3.683-.015-5.562l-.002-.198c-.027-2.599-.068-6.527 2.729-8.423.992-.671 2.543-1.121 3.563-1.218 2.54-.252 4.7.611 6.205 2.424 1.485 1.788 1.588 3.814 1.688 5.773.019.367.037.736.066 1.104.12 1.543.099 6.392.086 9.6-.004.825-.006 1.505-.006 1.926.004 1.961-.059 3.398-.379 4.166l-.26.627c-.723 1.746-1.47 3.552-2.427 4.769-1.65 2.099-2.806 3.236-4.181 3.236zm.035-31.664c-.208 0-.421.01-.637.03-.837.08-2.042.484-2.631.884-1.908 1.293-1.875 4.444-1.851 6.746l.002.199c.019 1.886.017 3.738.015 5.583-.002 1.868-.003 3.727.016 5.603.013 1.24.183 2.381.49 3.302a22.553 22.553 0 0 0 2.494 5.124c1.187 1.813 1.779 2.193 2.066 2.193.665 0 2.027-1.732 2.609-2.472.787-1 1.48-2.676 2.151-4.297l.263-.633c.105-.252.23-1.038.225-3.353-.001-.463.002-1.146.006-1.978.012-2.982.033-7.975-.08-9.437-.03-.386-.05-.772-.069-1.157-.09-1.782-.168-3.321-1.229-4.598-.96-1.153-2.252-1.739-3.84-1.739z"/>
  <path d="M35.394 37.026c-1.055 0-3.077-.021-5.189-.041-2.613-.026-5.365-.055-6.586-.046-.525-.028-1.003-.44-1.006-.993s.441-1.003.994-1.007c1.229-.008 3.994.02 6.619.046 2.191.021 4.292.041 5.292.041h.001a1 1 0 0 1 .002 2h-.127zM33.096 42.117a.994.994 0 0 1-.393-.08c-1.553-.665-4.787-.697-6.786-.07a1 1 0 1 1-.598-1.908c2.185-.687 5.99-.794 8.17.139a1 1 0 0 1-.393 1.919zM24.207 20.081a1 1 0 0 1-.032-1.999c.641-.021 2.821-.021 5.13-.021 2.239 0 4.555 0 5.355-.021.599.006 1.011.424 1.025.975a1 1 0 0 1-.974 1.025c-.826.021-3.154.021-5.406.021-2.191 0-4.457 0-5.064.02h-.034zM40.77 51.332h-.007c-4.34-.029-8.823-.017-12.801-.006l-2.524.006h-.001a1.001 1.001 0 0 1-.002-2l2.522-.006c3.983-.012 8.471-.023 12.82.006a1 1 0 0 1-.007 2z"/>
</svg>