<svg version="1.1" xmlns="http://www.w3.org/2000/svg" xmlns:xlink="http://www.w3.org/1999/xlink" width="64px" height="64px" viewBox="0,0,256,256"><g fill="#ffffff" fill-rule="nonzero" stroke="none" stroke-width="1" stroke-linecap="butt" stroke-linejoin="miter" stroke-miterlimit="10" stroke-dasharray="" stroke-dashoffset="0" font-family="none" font-weight="none" font-size="none" text-anchor="none" style="mix-blend-mode: normal"><g transform="translate(-0.00567,0.0019) scale(4,4)"><path d="M29.319,46.335c-1.42,0 -2.522,-1.238 -3.74,-3.098c-1.13893,-1.73972 -2.05224,-3.61708 -2.718,-5.587c-0.47,-1.408 -0.582,-2.905 -0.593,-3.913c-0.02,-1.884 -0.018,-3.751 -0.016,-5.626c0.002,-1.837 0.003,-3.683 -0.015,-5.562l-0.002,-0.198c-0.027,-2.599 -0.068,-6.527 2.729,-8.423c0.992,-0.671 2.543,-1.121 3.563,-1.218c2.54,-0.252 4.7,0.611 6.205,2.424c1.485,1.788 1.588,3.814 1.688,5.773c0.019,0.367 0.037,0.736 0.066,1.104c0.12,1.543 0.099,6.392 0.086,9.6c-0.004,0.825 -0.006,1.505 -0.006,1.926c0.004,1.961 -0.059,3.398 -0.379,4.166l-0.26,0.627c-0.723,1.746 -1.47,3.552 -2.427,4.769c-1.65,2.099 -2.806,3.236 -4.181,3.236zM29.354,14.671c-0.208,0 -0.421,0.01 -0.637,0.03c-0.837,0.08 -2.042,0.484 -2.631,0.884c-1.908,1.293 -1.875,4.444 -1.851,6.746l0.002,0.199c0.019,1.886 0.017,3.738 0.015,5.583c-0.002,1.868 -0.003,3.727 0.016,5.603c0.013,1.24 0.183,2.381 0.49,3.302c0.61133,1.80658 1.44935,3.52832 2.494,5.124c1.187,1.813 1.779,2.193 2.066,2.193c0.665,0 2.027,-1.732 2.609,-2.472c0.787,-1 1.48,-2.676 2.151,-4.297l0.263,-0.633c0.105,-0.252 0.23,-1.038 0.225,-3.353c-0.001,-0.463 0.002,-1.146 0.006,-1.978c0.012,-2.982 0.033,-7.975 -0.08,-9.437c-0.03,-0.386 -0.05,-0.772 -0.069,-1.157c-0.09,-1.782 -0.168,-3.321 -1.229,-4.598c-0.96,-1.153 -2.252,-1.739 -3.84,-1.739z"></path><path d="M35.394,37.026c-1.055,0 -3.077,-0.021 -5.189,-0.041c-2.613,-0.026 -5.365,-0.055 -6.586,-0.046c-0.525,-0.028 -1.003,-0.44 -1.006,-0.993c-0.003,-0.553 0.441,-1.003 0.994,-1.007c1.229,-0.008 3.994,0.02 6.619,0.046c2.191,0.021 4.292,0.041 5.292,0.041h0.001c0.55228,-0.00055 1.00045,0.44672 1.001,0.999c0.00055,0.55228 -0.44672,1.00045 -0.999,1.001zM33.096,42.117c-0.13507,0.00031 -0.2688,-0.02691 -0.393,-0.08c-1.553,-0.665 -4.787,-0.697 -6.786,-0.07c-0.34345,0.11599 -0.72277,0.03703 -0.99141,-0.20637c-0.26864,-0.2434 -0.38452,-0.61312 -0.30286,-0.96631c0.08166,-0.35319 0.34806,-0.63453 0.69627,-0.73532c2.185,-0.687 5.99,-0.794 8.17,0.139c0.43605,0.18707 0.68061,0.6548 0.58541,1.11963c-0.09519,0.46483 -0.50393,0.79877 -0.97841,0.79937zM24.207,20.081c-0.54163,-0.0061 -0.97993,-0.44234 -0.9886,-0.98393c-0.00867,-0.54159 0.41545,-0.99163 0.9566,-1.01507c0.641,-0.021 2.821,-0.021 5.13,-0.021c2.239,0 4.555,0 5.355,-0.021c0.599,0.006 1.011,0.424 1.025,0.975c0.01399,0.55197 -0.42203,1.01082 -0.974,1.025c-0.826,0.021 -3.154,0.021 -5.406,0.021c-2.191,0 -4.457,0 -5.064,0.02zM40.77,51.332h-0.007c-4.34,-0.029 -8.823,-0.017 -12.801,-0.006l-2.524,0.006h-0.001c-0.53494,-0.02339 -0.95674,-0.4636 -0.95728,-0.99904c-0.00054,-0.53545 0.42039,-0.9765 0.95528,-1.00096l2.522,-0.006c3.983,-0.012 8.471,-0.023 12.82,0.006c0.55228,0.00193 0.99843,0.45122 0.9965,1.0035c-0.00193,0.55228 -0.45122,0.99843 -1.0035,0.9965z"></path></g></g></svg>