<svg xmlns="http://www.w3.org/2000/svg" xml:space="preserve" viewBox="0 0 64 64">
  <path d="M31.669 38.294c-2.715 0-5.144-2-5.906-4.863-.719-2.699.269-5.197 2.576-6.52 1.151-.66 2.561-1.023 3.967-1.023 1.38 0 2.653.345 3.683.997 2.227 1.41 3.267 4.279 2.474 6.821-.815 2.609-3.538 4.495-6.621 4.586l-.173.002zm.637-10.406c-1.063 0-2.119.27-2.973.758-2.233 1.281-1.818 3.592-1.638 4.271.434 1.627 1.862 3.378 3.974 3.378l.113-.002c1.836-.054 4.111-1.072 4.771-3.182.528-1.694-.159-3.602-1.635-4.536-.709-.45-1.612-.687-2.612-.687zM27.308 19.347a1 1 0 0 1-1-1v-3.261c-.002-1.238.262-2.574 2.232-3.099 1.046-.276 2.489-.237 3.763-.201.427.012.83.03 1.167.02 1.354-.021 2.454.341 3.162 1.058.754.764.849 1.679.838 2.156-.009.359-.009.745-.009 1.147 0 .679 0 1.402-.037 2.124-.028.551-.517.966-1.051.947a1 1 0 0 1-.947-1.051c.036-.687.035-1.375.035-2.021 0-.419 0-.82.009-1.193a.966.966 0 0 0-.262-.705c-.307-.312-.921-.479-1.717-.463a38.32 38.32 0 0 1-1.245-.021c-1.081-.03-2.428-.068-3.192.136-.645.171-.748.264-.746 1.161v3.265a1 1 0 0 1-1 1.001zM46.893 30.081a1 1 0 0 1-.516-1.857c.594-.356 1.168-.744 1.708-1.108.342-.23.671-.452.981-.651.136-.087.373-.281.439-.61.086-.43-.113-1.012-.576-1.684a35.431 35.431 0 0 1-.679-1.043c-.579-.913-1.3-2.051-1.897-2.572-.499-.437-.633-.475-1.379.03l-2.707 1.824a.997.997 0 0 1-1.388-.271.999.999 0 0 1 .271-1.388l2.703-1.822c1.024-.695 2.279-1.223 3.816.12.814.712 1.588 1.932 2.271 3.007.229.36.442.698.636.979.789 1.145 1.089 2.226.89 3.213-.212 1.053-.918 1.642-1.32 1.899-.298.191-.613.404-.943.627-.566.382-1.171.789-1.794 1.164a1.006 1.006 0 0 1-.516.143zM16.84 30.284a.987.987 0 0 1-.515-.144 40.625 40.625 0 0 1-1.779-1.154 54.186 54.186 0 0 0-.958-.636c-.403-.258-1.108-.848-1.32-1.9-.198-.987.102-2.068.891-3.213.193-.28.407-.618.635-.979.683-1.076 1.455-2.296 2.271-3.008 1.536-1.343 2.792-.813 3.817-.119l2.704 1.822c.457.309.578.931.27 1.389-.309.457-.93.577-1.389.27l-2.707-1.824c-.74-.504-.877-.471-1.379-.031-.598.521-1.318 1.659-1.897 2.573-.243.384-.472.743-.678 1.042-.463.672-.663 1.255-.576 1.684.066.33.303.524.438.611.314.201.648.427.996.661.535.36 1.105.745 1.693 1.1a.999.999 0 0 1-.517 1.856zM46.022 45.647c-.709 0-1.341-.331-1.903-.712l-2.703-1.821a1 1 0 0 1 1.117-1.659l2.707 1.823c.742.502.878.471 1.38.031.598-.521 1.318-1.659 1.897-2.573.243-.384.472-.743.678-1.042.463-.672.663-1.255.576-1.684-.066-.33-.303-.524-.438-.611-.313-.2-.645-.424-.991-.657-.536-.361-1.108-.747-1.698-1.102a1.002 1.002 0 0 1 1.031-1.715c.619.373 1.221.777 1.785 1.158.332.224.651.438.952.632.403.258 1.108.848 1.32 1.9.198.987-.102 2.068-.891 3.213-.193.28-.407.618-.635.979-.683 1.076-1.455 2.296-2.271 3.008-.692.608-1.329.832-1.913.832zM18.246 45.651c-.584 0-1.221-.225-1.915-.831-.814-.712-1.588-1.932-2.271-3.007-.229-.36-.442-.698-.636-.979-.789-1.145-1.089-2.226-.89-3.213.212-1.053.918-1.642 1.32-1.899.298-.191.613-.404.943-.627a41.313 41.313 0 0 1 1.794-1.164 1.001 1.001 0 0 1 1.031 1.715c-.594.356-1.168.744-1.708 1.108-.342.23-.671.452-.981.651-.136.087-.373.281-.439.61-.086.43.113 1.012.576 1.684.206.299.435.659.679 1.043.579.913 1.3 2.051 1.897 2.572.5.438.633.474 1.379-.03l2.707-1.824a.997.997 0 0 1 1.388.271.999.999 0 0 1-.271 1.388l-2.703 1.822c-.56.38-1.192.71-1.9.71zM31.182 52.239c-.863 0-1.715-.046-2.397-.227-1.972-.524-2.234-1.861-2.231-3.1v-3.26a1 1 0 1 1 2 0v3.265c-.002.897.101.99.745 1.161.765.204 2.108.166 3.192.136.455-.012.88-.02 1.245-.021.815.013 1.41-.151 1.718-.463.235-.238.265-.545.261-.706-.008-.369-.008-.766-.008-1.179 0-.65.001-1.343-.035-2.034a1.001 1.001 0 0 1 1.998-.104c.037.727.037 1.455.037 2.139 0 .396 0 .778.008 1.133.011.478-.084 1.393-.838 2.156-.707.716-1.802 1.056-3.162 1.058-.339-.006-.741.008-1.167.02-.444.014-.906.026-1.366.026z"/>
  <path d="M41.708 22.58a1 1 0 0 1-.921-.61c-.457-1.079-3.18-2.646-4.432-2.732a1 1 0 0 1-.929-1.067 1.01 1.01 0 0 1 1.067-.929c1.773.123 5.302 1.979 6.135 3.949a1 1 0 0 1-.92 1.389zM22.025 22.688a1 1 0 0 1-.921-1.39c.833-1.97 4.36-3.826 6.134-3.949.546-.023 1.028.378 1.067.929a1 1 0 0 1-.929 1.067c-1.252.086-3.974 1.653-4.431 2.732a.996.996 0 0 1-.92.611zM36.691 46.653a1 1 0 0 1-.068-1.998c1.252-.086 3.974-1.653 4.431-2.732a1 1 0 1 1 1.842.78c-.833 1.97-4.36 3.826-6.134 3.949l-.071.001zM27.576 46.547l-.07-.002c-1.773-.123-5.302-1.979-6.135-3.949a1 1 0 1 1 1.842-.78c.457 1.079 3.18 2.646 4.432 2.732a1 1 0 0 1-.069 1.999zM17.109 35.788a1 1 0 0 1-.876-.516c-.921-1.662-.868-4.797-.209-6.283a1 1 0 0 1 1.828.81c-.439.992-.455 3.446.131 4.504a.999.999 0 0 1-.874 1.485zM46.844 35.475a.998.998 0 0 1-.874-1.485c.587-1.057.57-3.511.131-4.503a.999.999 0 1 1 1.828-.81c.659 1.487.712 4.622-.209 6.284a1.005 1.005 0 0 1-.876.514z"/>
</svg>