<svg version="1.1" xmlns="http://www.w3.org/2000/svg" xmlns:xlink="http://www.w3.org/1999/xlink" width="64px" height="64px" viewBox="0,0,256,256"><g fill="#ffffff" fill-rule="nonzero" stroke="none" stroke-width="1" stroke-linecap="butt" stroke-linejoin="miter" stroke-miterlimit="10" stroke-dasharray="" stroke-dashoffset="0" font-family="none" font-weight="none" font-size="none" text-anchor="none" style="mix-blend-mode: normal"><g transform="translate(-0.00474,0) scale(4,4)"><path d="M33.172,49.526c-2.822,0 -6.593,-0.175 -8.528,-1.01c-2.053,-0.885 -3.703,-2.646 -5.044,-5.383c-1.337,-2.73 -1.356,-6.535 -1.372,-9.592l-0.006,-0.829c-0.003,-0.362 -0.02,-0.843 -0.038,-1.413c-0.107,-3.204 -0.306,-9.168 1.061,-12.832c0.67,-1.797 1.668,-2.914 2.968,-3.32c1.452,-0.453 4.36,-0.673 8.893,-0.673c2.49,0 4.874,0.066 6.451,0.11c0.604,0.017 1.075,0.03 1.362,0.034c2.839,0.039 6.309,1.176 6.751,4.255c0.145,1.009 0.179,6.792 0.209,14.249c0.012,2.939 0.015,5.411 0.016,6.314c0.009,5.274 -1.266,8.436 -3.788,9.396c-0.973,0.37 -5.148,0.694 -8.935,0.694zM31.104,16.474c-5.314,0 -7.445,0.317 -8.297,0.583c-0.679,0.212 -1.247,0.922 -1.69,2.11c-1.228,3.292 -1.037,9 -0.936,12.066c0.021,0.589 0.036,1.086 0.04,1.46l0.006,0.837c0.014,2.854 0.032,6.404 1.168,8.723c1.138,2.322 2.422,3.729 4.039,4.426c1.248,0.538 4.068,0.847 7.737,0.847c4.079,0 7.693,-0.37 8.223,-0.564c1.145,-0.436 2.508,-2.095 2.499,-7.523c-0.001,-0.902 -0.004,-3.372 -0.016,-6.309c-0.021,-5.185 -0.053,-13.021 -0.189,-13.973c-0.28,-1.957 -3.147,-2.517 -4.797,-2.539c-0.46407,-0.00865 -0.92808,-0.02032 -1.392,-0.035c-1.565,-0.043 -3.933,-0.109 -6.395,-0.109z"></path><path d="M28.672,49.244h-0.005c-0.5519,-0.00276 -0.99721,-0.4521 -0.995,-1.004c0.003,-0.697 0.066,-1.334 0.127,-1.95c0.062,-0.621 0.12,-1.207 0.117,-1.835c-0.002,-0.444 0.027,-0.92 0.058,-1.404c0.146,-2.327 0.018,-3.198 -0.992,-3.449c-1.346,-0.334 -3.286,-0.199 -4.999,-0.08c-0.72389,0.05718 -1.44913,0.09586 -2.175,0.116c-0.556,-0.021 -1.007,-0.431 -1.017,-0.983c-0.00455,-0.26523 0.09647,-0.52139 0.28083,-0.71213c0.18436,-0.19073 0.43694,-0.3004 0.70217,-0.30487c0.629,-0.01 1.334,-0.06 2.069,-0.111c1.862,-0.129 3.971,-0.276 5.62,0.135c2.808,0.699 2.626,3.597 2.506,5.515c-0.027,0.438 -0.055,0.87 -0.054,1.271c0.003,0.73 -0.063,1.396 -0.127,2.041c-0.059,0.596 -0.114,1.159 -0.117,1.762c-0.0022,0.54985 -0.44915,0.99411 -0.999,0.993zM36.138,23.786c-0.659,0 -1.334,-0.003 -2.005,-0.007c-0.659,-0.004 -1.315,-0.007 -1.949,-0.007c-0.55228,0 -1,-0.44772 -1,-1c0,-0.55228 0.44772,-1 1,-1c0.638,0 1.297,0.003 1.961,0.007c1.327,0.008 2.668,0.016 3.874,-0.007h0.019c0.55228,-0.00525 1.00425,0.43822 1.0095,0.9905c0.00525,0.55228 -0.43822,1.00425 -0.9905,1.0095c-0.613,0.011 -1.258,0.014 -1.919,0.014zM32.086,29.327c-1.782,0 -3.601,-0.002 -4.946,-0.003l-1.828,-0.001c-0.55228,0 -1,-0.44772 -1,-1c0,-0.55228 0.44772,-1 1,-1l1.83,0.001c3.294,0.003 9.426,0.011 10.877,-0.017c0.558,0.011 1.008,0.43 1.019,0.981c0.01,0.552 -0.43,1.008 -0.981,1.019c-0.872,0.016 -3.383,0.02 -5.971,0.02z"></path></g></g></svg>