<svg xmlns="http://www.w3.org/2000/svg" xml:space="preserve" viewBox="0 0 64 64">
  <path d="M32.669 50.2c-2.052 0-3.626-.039-5.104-.126l-.44-.025a51.25 51.25 0 0 1-2.152-.154c-1.619-.161-3.701-.498-5.451-1.687-3.821-2.596-3.912-7.297-3.985-11.074l-.007-.358c-.08-3.934-.005-7.166.236-10.172l.018-.23c.093-1.175.198-2.507.619-3.726.874-2.535 2.759-4.324 5.042-4.785 1.413-.285 8.036-.388 12.144-.388 1.846 0 6.317.021 7.951.212 2.849.333 4.787 1.839 5.929 4.604.732 1.777.783 3.947.827 5.862.009.37.018.729.03 1.072.104 2.705.158 5.647.165 8.994.008 4.319-.66 9.495-5.934 11.192-2.07.666-4.295.755-5.789.764l-1.388.01c-.902.007-1.807.015-2.711.015zm.919-30.726c-5.524 0-10.794.156-11.748.349-1.581.319-2.906 1.618-3.547 3.476-.337.978-.428 2.123-.516 3.231l-.019.232c-.235 2.937-.309 6.105-.229 9.971l.007.361c.071 3.66.145 7.444 3.11 9.458 1.377.936 3.141 1.213 4.524 1.351.697.069 1.394.109 2.069.147l.444.026c1.437.084 2.974.123 4.985.123.898 0 1.798-.007 2.695-.015l1.392-.01c2.164-.013 3.813-.226 5.188-.668 3.196-1.028 4.557-3.805 4.547-9.284a245.72 245.72 0 0 0-.163-8.921c-.014-.354-.022-.723-.031-1.103-.04-1.74-.086-3.712-.678-5.146-.873-2.118-2.163-3.129-4.312-3.38-1.061-.124-3.947-.198-7.718-.198z"/>
  <path d="M38.545 23.786a1 1 0 0 1-1-.995c-.006-1.212-.004-3.505-.002-5.688l.002-2.456a1 1 0 1 1 2 0l-.002 2.457c-.002 2.178-.004 4.466.002 5.675a1 1 0 0 1-.995 1.005c-.001.002-.003.002-.005.002zM25.459 23.786a1 1 0 0 1-1-.996c-.005-1.172-.003-3.359-.002-5.478l.002-2.664a1 1 0 0 1 2 0l-.002 2.666c-.001 2.115-.003 4.296.002 5.467a1 1 0 0 1-.996 1.004l-.004.001zM24.729 29.678c-3.761 0-6.756-.006-7.896-.022a1 1 0 0 1 .015-2h.015c2.412.036 13.714.019 21.968.009 3.402-.005 6.385-.009 8.218-.009a1 1 0 1 1 0 2c-1.832 0-4.813.004-8.215.009-4.627.006-9.855.013-14.105.013z"/>
</svg>