<svg version="1.1" xmlns="http://www.w3.org/2000/svg" xmlns:xlink="http://www.w3.org/1999/xlink" width="64px" height="64px" viewBox="0,0,256,256"><g fill="#ffffff" fill-rule="nonzero" stroke="none" stroke-width="1" stroke-linecap="butt" stroke-linejoin="miter" stroke-miterlimit="10" stroke-dasharray="" stroke-dashoffset="0" font-family="none" font-weight="none" font-size="none" text-anchor="none" style="mix-blend-mode: normal"><g transform="translate(0,0.00055) scale(4,4)"><path d="M31.669,38.294c-2.715,0 -5.144,-2 -5.906,-4.863c-0.719,-2.699 0.269,-5.197 2.576,-6.52c1.151,-0.66 2.561,-1.023 3.967,-1.023c1.38,0 2.653,0.345 3.683,0.997c2.227,1.41 3.267,4.279 2.474,6.821c-0.815,2.609 -3.538,4.495 -6.621,4.586zM32.306,27.888c-1.063,0 -2.119,0.27 -2.973,0.758c-2.233,1.281 -1.818,3.592 -1.638,4.271c0.434,1.627 1.862,3.378 3.974,3.378l0.113,-0.002c1.836,-0.054 4.111,-1.072 4.771,-3.182c0.528,-1.694 -0.159,-3.602 -1.635,-4.536c-0.709,-0.45 -1.612,-0.687 -2.612,-0.687zM27.308,19.347c-0.55228,0 -1,-0.44772 -1,-1v-3.261c-0.002,-1.238 0.262,-2.574 2.232,-3.099c1.046,-0.276 2.489,-0.237 3.763,-0.201c0.427,0.012 0.83,0.03 1.167,0.02c1.354,-0.021 2.454,0.341 3.162,1.058c0.754,0.764 0.849,1.679 0.838,2.156c-0.009,0.359 -0.009,0.745 -0.009,1.147c0,0.679 0,1.402 -0.037,2.124c-0.028,0.551 -0.517,0.966 -1.051,0.947c-0.26498,-0.0137 -0.51366,-0.13215 -0.69128,-0.32927c-0.17762,-0.19712 -0.26961,-0.45675 -0.25572,-0.72173c0.036,-0.687 0.035,-1.375 0.035,-2.021c0,-0.419 0,-0.82 0.009,-1.193c0.01149,-0.26074 -0.08301,-0.51504 -0.262,-0.705c-0.307,-0.312 -0.921,-0.479 -1.717,-0.463c-0.41509,-0.00026 -0.83014,-0.00726 -1.245,-0.021c-1.081,-0.03 -2.428,-0.068 -3.192,0.136c-0.645,0.171 -0.748,0.264 -0.746,1.161v3.265c0.00027,0.26539 -0.10497,0.52 -0.29254,0.70775c-0.18757,0.18775 -0.44207,0.29325 -0.70746,0.29325zM46.893,30.081c-0.44943,0.00031 -0.84386,-0.29925 -0.96418,-0.73228c-0.12032,-0.43302 0.06302,-0.89313 0.44818,-1.12472c0.594,-0.356 1.168,-0.744 1.708,-1.108c0.342,-0.23 0.671,-0.452 0.981,-0.651c0.136,-0.087 0.373,-0.281 0.439,-0.61c0.086,-0.43 -0.113,-1.012 -0.576,-1.684c-0.23242,-0.34366 -0.45879,-0.69138 -0.679,-1.043c-0.579,-0.913 -1.3,-2.051 -1.897,-2.572c-0.499,-0.437 -0.633,-0.475 -1.379,0.03l-2.707,1.824c-0.21975,0.14892 -0.48982,0.20406 -0.75036,0.15319c-0.26054,-0.05087 -0.49004,-0.20354 -0.63764,-0.42419c-0.14839,-0.21992 -0.20321,-0.48982 -0.15237,-0.75021c0.05084,-0.26038 0.20316,-0.48985 0.42337,-0.63779l2.703,-1.822c1.024,-0.695 2.279,-1.223 3.816,0.12c0.814,0.712 1.588,1.932 2.271,3.007c0.229,0.36 0.442,0.698 0.636,0.979c0.789,1.145 1.089,2.226 0.89,3.213c-0.212,1.053 -0.918,1.642 -1.32,1.899c-0.298,0.191 -0.613,0.404 -0.943,0.627c-0.566,0.382 -1.171,0.789 -1.794,1.164c-0.15592,0.09341 -0.33424,0.14282 -0.516,0.143zM16.84,30.284c-0.18165,0.0003 -0.35985,-0.04952 -0.515,-0.144c-0.60294,-0.36912 -1.19614,-0.75392 -1.779,-1.154c-0.31707,-0.21538 -0.63643,-0.42739 -0.958,-0.636c-0.403,-0.258 -1.108,-0.848 -1.32,-1.9c-0.198,-0.987 0.102,-2.068 0.891,-3.213c0.193,-0.28 0.407,-0.618 0.635,-0.979c0.683,-1.076 1.455,-2.296 2.271,-3.008c1.536,-1.343 2.792,-0.813 3.817,-0.119l2.704,1.822c0.457,0.309 0.578,0.931 0.27,1.389c-0.309,0.457 -0.93,0.577 -1.389,0.27l-2.707,-1.824c-0.74,-0.504 -0.877,-0.471 -1.379,-0.031c-0.598,0.521 -1.318,1.659 -1.897,2.573c-0.243,0.384 -0.472,0.743 -0.678,1.042c-0.463,0.672 -0.663,1.255 -0.576,1.684c0.066,0.33 0.303,0.524 0.438,0.611c0.314,0.201 0.648,0.427 0.996,0.661c0.535,0.36 1.105,0.745 1.693,1.1c0.3859,0.23116 0.56971,0.69174 0.449,1.12508c-0.12071,0.43334 -0.51616,0.73256 -0.966,0.73092zM46.022,45.647c-0.709,0 -1.341,-0.331 -1.903,-0.712l-2.703,-1.821c-0.45639,-0.30911 -0.57659,-0.92924 -0.26873,-1.38647c0.30786,-0.45724 0.92766,-0.57913 1.38573,-0.27253l2.707,1.823c0.742,0.502 0.878,0.471 1.38,0.031c0.598,-0.521 1.318,-1.659 1.897,-2.573c0.243,-0.384 0.472,-0.743 0.678,-1.042c0.463,-0.672 0.663,-1.255 0.576,-1.684c-0.066,-0.33 -0.303,-0.524 -0.438,-0.611c-0.313,-0.2 -0.645,-0.424 -0.991,-0.657c-0.536,-0.361 -1.108,-0.747 -1.698,-1.102c-0.44062,-0.29859 -0.57089,-0.88957 -0.29666,-1.34574c0.27424,-0.45617 0.85727,-0.61833 1.32766,-0.36926c0.619,0.373 1.221,0.777 1.785,1.158c0.332,0.224 0.651,0.438 0.952,0.632c0.403,0.258 1.108,0.848 1.32,1.9c0.198,0.987 -0.102,2.068 -0.891,3.213c-0.193,0.28 -0.407,0.618 -0.635,0.979c-0.683,1.076 -1.455,2.296 -2.271,3.008c-0.692,0.608 -1.329,0.832 -1.913,0.832zM18.246,45.651c-0.584,0 -1.221,-0.225 -1.915,-0.831c-0.814,-0.712 -1.588,-1.932 -2.271,-3.007c-0.229,-0.36 -0.442,-0.698 -0.636,-0.979c-0.789,-1.145 -1.089,-2.226 -0.89,-3.213c0.212,-1.053 0.918,-1.642 1.32,-1.899c0.298,-0.191 0.613,-0.404 0.943,-0.627c0.58786,-0.40342 1.18606,-0.79155 1.794,-1.164c0.47188,-0.2642 1.06829,-0.10583 1.34693,0.35767c0.27864,0.4635 0.13875,1.06451 -0.31593,1.35733c-0.594,0.356 -1.168,0.744 -1.708,1.108c-0.342,0.23 -0.671,0.452 -0.981,0.651c-0.136,0.087 -0.373,0.281 -0.439,0.61c-0.086,0.43 0.113,1.012 0.576,1.684c0.206,0.299 0.435,0.659 0.679,1.043c0.579,0.913 1.3,2.051 1.897,2.572c0.5,0.438 0.633,0.474 1.379,-0.03l2.707,-1.824c0.21975,-0.14892 0.48982,-0.20406 0.75036,-0.15319c0.26054,0.05087 0.49004,0.20354 0.63764,0.42419c0.14839,0.21992 0.20321,0.48982 0.15237,0.75021c-0.05084,0.26038 -0.20316,0.48985 -0.42337,0.63779l-2.703,1.822c-0.56,0.38 -1.192,0.71 -1.9,0.71zM31.182,52.239c-0.863,0 -1.715,-0.046 -2.397,-0.227c-1.972,-0.524 -2.234,-1.861 -2.231,-3.1v-3.26c0,-0.55228 0.44772,-1 1,-1c0.55228,0 1,0.44772 1,1v3.265c-0.002,0.897 0.101,0.99 0.745,1.161c0.765,0.204 2.108,0.166 3.192,0.136c0.455,-0.012 0.88,-0.02 1.245,-0.021c0.815,0.013 1.41,-0.151 1.718,-0.463c0.235,-0.238 0.265,-0.545 0.261,-0.706c-0.008,-0.369 -0.008,-0.766 -0.008,-1.179c0,-0.65 0.001,-1.343 -0.035,-2.034c-0.00864,-0.53876 0.41074,-0.98769 0.94884,-1.0157c0.5381,-0.02801 1.00182,0.37495 1.04916,0.9117c0.037,0.727 0.037,1.455 0.037,2.139c0,0.396 0,0.778 0.008,1.133c0.011,0.478 -0.084,1.393 -0.838,2.156c-0.707,0.716 -1.802,1.056 -3.162,1.058c-0.339,-0.006 -0.741,0.008 -1.167,0.02c-0.444,0.014 -0.906,0.026 -1.366,0.026z"></path><path d="M41.708,22.58c-0.40164,0.00007 -0.76436,-0.24016 -0.921,-0.61c-0.457,-1.079 -3.18,-2.646 -4.432,-2.732c-0.26472,-0.0182 -0.51136,-0.14087 -0.6856,-0.34099c-0.17424,-0.20012 -0.2618,-0.4613 -0.2434,-0.72601c0.04316,-0.54865 0.51763,-0.96175 1.067,-0.929c1.773,0.123 5.302,1.979 6.135,3.949c0.13031,0.30859 0.09745,0.66193 -0.08753,0.94121c-0.18498,0.27927 -0.4975,0.44738 -0.83247,0.44779zM22.025,22.688c-0.33542,0.00006 -0.64853,-0.16804 -0.8338,-0.44765c-0.18527,-0.27961 -0.21801,-0.63348 -0.0872,-0.94235c0.833,-1.97 4.36,-3.826 6.134,-3.949c0.546,-0.023 1.028,0.378 1.067,0.929c0.0184,0.26471 -0.06916,0.52588 -0.2434,0.72601c-0.17424,0.20012 -0.42088,0.32279 -0.6856,0.34099c-1.252,0.086 -3.974,1.653 -4.431,2.732c-0.15533,0.37061 -0.51816,0.61157 -0.92,0.611zM36.691,46.653c-0.54097,0.0027 -0.986,-0.42531 -1.0044,-0.96597c-0.0184,-0.54067 0.3965,-0.99794 0.9364,-1.03203c1.252,-0.086 3.974,-1.653 4.431,-2.732c0.21539,-0.50865 0.80235,-0.74639 1.311,-0.531c0.50865,0.21539 0.74639,0.80235 0.531,1.311c-0.833,1.97 -4.36,3.826 -6.134,3.949zM27.576,46.547l-0.07,-0.002c-1.773,-0.123 -5.302,-1.979 -6.135,-3.949c-0.21539,-0.50865 0.02235,-1.09561 0.531,-1.311c0.50865,-0.21539 1.09561,0.02235 1.311,0.531c0.457,1.079 3.18,2.646 4.432,2.732c0.55201,0.01905 0.98405,0.48199 0.965,1.034c-0.01905,0.55201 -0.48199,0.98405 -1.034,0.965zM17.109,35.788c-0.36417,0.00034 -0.69974,-0.19732 -0.876,-0.516c-0.921,-1.662 -0.868,-4.797 -0.209,-6.283c0.23182,-0.49093 0.81301,-0.70721 1.30937,-0.48727c0.49636,0.21994 0.72657,0.79575 0.51863,1.29727c-0.439,0.992 -0.455,3.446 0.131,4.504c0.17239,0.30959 0.16787,0.68733 -0.01186,0.99272c-0.17973,0.30538 -0.50779,0.4927 -0.86214,0.49228zM46.844,35.475c-0.3546,0.00103 -0.68312,-0.18618 -0.86298,-0.49179c-0.17986,-0.3056 -0.18406,-0.6837 -0.01102,-0.99321c0.587,-1.057 0.57,-3.511 0.131,-4.503c-0.22368,-0.50479 0.00421,-1.09532 0.509,-1.319c0.50479,-0.22368 1.09532,0.00421 1.319,0.509c0.659,1.487 0.712,4.622 -0.209,6.284c-0.17757,0.31713 -0.51254,0.51368 -0.876,0.514z"></path></g></g></svg>