<svg version="1.1" xmlns="http://www.w3.org/2000/svg" xmlns:xlink="http://www.w3.org/1999/xlink" width="64px" height="64px" viewBox="0,0,256,256"><g fill="#ffffff" fill-rule="nonzero" stroke="none" stroke-width="1" stroke-linecap="butt" stroke-linejoin="miter" stroke-miterlimit="10" stroke-dasharray="" stroke-dashoffset="0" font-family="none" font-weight="none" font-size="none" text-anchor="none" style="mix-blend-mode: normal"><g transform="translate(0.00042,0.002) scale(4,4)"><path d="M40.835,47.818c-0.582,0 -1.97,-0.008 -3.751,-0.018c-4.401,-0.026 -11.215,-0.064 -14.206,-0.03h-0.001c-3.324,0 -7.83,-2.253 -7.842,-6.482c-0.006,-2.208 0.012,-4.117 0.029,-5.955c0.027,-2.926 0.053,-5.69 -0.024,-9.208c-0.129,-5.882 2.456,-9.413 7.092,-9.688c2.534,-0.151 7.256,-0.256 11.484,-0.256c4.166,0 9.432,0.094 10.863,0.544c2.574,0.808 4.038,3.591 4.308,5.835c0.31,2.564 0.142,11.354 0.052,16.077c-0.026,1.34 -0.045,2.346 -0.045,2.772c0,1.804 -0.802,3.443 -2.259,4.618c-1.454,1.172 -3.426,1.791 -5.7,1.791zM26.091,45.758c3.355,0 7.813,0.025 11.004,0.043c1.776,0.01 3.159,0.018 3.74,0.018c1.787,0 3.366,-0.479 4.445,-1.348c0.991,-0.798 1.514,-1.856 1.514,-3.059c0,-0.433 0.019,-1.453 0.045,-2.812c0.089,-4.674 0.255,-13.374 -0.038,-15.8c-0.202,-1.678 -1.271,-3.648 -2.921,-4.166c-0.696,-0.219 -3.758,-0.452 -10.265,-0.452c-4.193,0 -8.866,0.104 -11.366,0.252c-4.439,0.264 -5.284,4.305 -5.21,7.648c0.078,3.549 0.052,6.328 0.024,9.271c-0.017,1.831 -0.035,3.731 -0.029,5.93c0.008,2.89 3.416,4.489 5.768,4.489c0.885,-0.01 2.006,-0.014 3.289,-0.014z"></path><path d="M36.601,35.537c-0.438,0 -1.426,-0.016 -2.528,-0.034c-1.15058,-0.02133 -2.30126,-0.03667 -3.452,-0.046c-0.54109,-0.0031 -0.98156,-0.43604 -0.994,-0.977c-0.05163,-2.71469 -0.0763,-5.42982 -0.074,-8.145c0,-0.55228 0.44772,-1 1,-1c0.55228,0 1,0.44772 1,1c0,1.029 0.004,4.326 0.054,7.131c0.773,0.009 1.668,0.024 2.498,0.037c1.088,0.018 2.063,0.034 2.496,0.034c0.55228,0 1,0.44772 1,1c0,0.55228 -0.44772,1 -1,1zM18.936,33h-2.707c-0.55228,0 -1,-0.44772 -1,-1c0,-0.55228 0.44772,-1 1,-1h2.707c0.55228,0 1,0.44772 1,1c0,0.55228 -0.44772,1 -1,1zM47.858,33h-3.056c-0.55228,0 -1,-0.44772 -1,-1c0,-0.55228 0.44772,-1 1,-1h3.056c0.55228,0 1,0.44772 1,1c0,0.55228 -0.44772,1 -1,1zM31.98,20.556c-0.55228,0 -1,-0.44772 -1,-1c0,-0.261 0.009,-0.61 0.018,-0.982c0.011,-0.443 0.023,-0.919 0.021,-1.303c-0.00186,-0.26522 0.10171,-0.52031 0.28794,-0.70916c0.18623,-0.18885 0.43985,-0.29599 0.70506,-0.29784h0.007c0.54956,-0.00001 0.99615,0.44345 1,0.993c0.003,0.402 -0.01,0.902 -0.021,1.367c-0.009,0.353 -0.017,0.684 -0.017,0.932c-0.001,0.552 -0.448,1 -1.001,1zM31.98,47.522c-0.55228,0 -1,-0.44772 -1,-1c0,-0.261 0.009,-0.61 0.018,-0.982c0.011,-0.443 0.023,-0.919 0.021,-1.303c-0.00186,-0.26522 0.10171,-0.52031 0.28794,-0.70916c0.18623,-0.18885 0.43985,-0.29599 0.70506,-0.29784h0.007c0.54956,-0.00001 0.99615,0.44345 1,0.993c0.003,0.402 -0.01,0.902 -0.021,1.367c-0.009,0.353 -0.017,0.684 -0.017,0.932c0,0.26539 -0.10549,0.5199 -0.29325,0.70746c-0.18775,0.18757 -0.44236,0.2928 -0.70775,0.29254z"></path></g></g></svg>